<svg width="48" height="48" viewBox="0 0 48 48" fill="none" xmlns="http://www.w3.org/2000/svg">
<g clip-path="url(#clip0_15_136)">
<path d="M32 35H16V43H32V35Z" fill="white"/>
<path d="M10 27C8.93914 27 7.92172 26.5786 7.17158 25.8284C6.42143 25.0783 6 24.0609 6 23C6 22.7348 6.10536 22.4804 6.2929 22.2929C6.48043 22.1054 6.73479 22 7 22C7.26522 22 7.51957 22.1054 7.70711 22.2929C7.89465 22.4804 8 22.7348 8 23C7.98011 23.5304 8.17175 24.0471 8.53276 24.4362C8.89377 24.8253 9.39457 25.0551 9.925 25.075C10.4554 25.0949 10.972 24.9033 11.3612 24.5423C11.7503 24.1812 11.9801 23.6804 12 23.15C11.4078 21.5009 10.2861 20.0943 8.81001 19.15L3.15 15.56C1.90401 14.7693 0.948559 13.5953 0.427472 12.2147C-0.0936162 10.8341 -0.152142 9.32156 0.260704 7.9048C0.67355 6.48804 1.53543 5.24371 2.7166 4.35913C3.89777 3.47455 5.33432 2.99757 6.81 3.00001H11C11.2652 3.00001 11.5196 3.10537 11.7071 3.2929C11.8946 3.48044 12 3.73479 12 4.00001C12 4.26523 11.8946 4.51958 11.7071 4.70712C11.5196 4.89465 11.2652 5.00001 11 5.00001H6.81C5.7722 5.00716 4.76442 5.3491 3.93654 5.97496C3.10866 6.60082 2.5049 7.47717 2.21504 8.4737C1.92518 9.47023 1.96471 10.5337 2.32775 11.506C2.69079 12.4782 3.35795 13.3073 4.23 13.87L9.87 17.46C11.8024 18.6773 13.2598 20.5194 14 22.68C14.0144 22.7862 14.0144 22.8938 14 23C14 24.0609 13.5786 25.0783 12.8284 25.8284C12.0783 26.5786 11.0609 27 10 27Z" fill="white"/>
<path d="M38 27C36.9391 27 35.9217 26.5786 35.1716 25.8284C34.4214 25.0783 34 24.0609 34 23C34 22.28 35.29 19.26 38.13 17.46L43.77 13.87C44.6421 13.3073 45.3092 12.4782 45.6723 11.506C46.0353 10.5337 46.0748 9.47023 45.785 8.4737C45.4951 7.47717 44.8913 6.60082 44.0635 5.97496C43.2356 5.3491 42.2278 5.00716 41.19 5.00001H37C36.7348 5.00001 36.4804 4.89465 36.2929 4.70712C36.1054 4.51958 36 4.26523 36 4.00001C36 3.73479 36.1054 3.48044 36.2929 3.2929C36.4804 3.10537 36.7348 3.00001 37 3.00001H41.19C42.6657 2.99757 44.1022 3.47455 45.2834 4.35913C46.4646 5.24371 47.3265 6.48804 47.7393 7.9048C48.1521 9.32156 48.0936 10.8341 47.5725 12.2147C47.0514 13.5953 46.096 14.7693 44.85 15.56L39.2 19.15C37.7239 20.0943 36.6022 21.5009 36.01 23.15C36.0596 23.6573 36.301 24.1265 36.685 24.4617C37.0689 24.797 37.5663 24.973 38.0756 24.9539C38.585 24.9347 39.0678 24.7219 39.4254 24.3587C39.7831 23.9956 39.9886 23.5096 40 23C40 22.7348 40.1054 22.4804 40.2929 22.2929C40.4804 22.1054 40.7348 22 41 22C41.2652 22 41.5196 22.1054 41.7071 22.2929C41.8946 22.4804 42 22.7348 42 23C42 24.0609 41.5786 25.0783 40.8284 25.8284C40.0783 26.5786 39.0609 27 38 27Z" fill="white"/>
<path d="M37.39 15.62L38 1C38 0.734784 37.8946 0.48043 37.7071 0.292893C37.5196 0.105357 37.2652 0 37 0L11 0C10.7348 0 10.4804 0.105357 10.2929 0.292893C10.1054 0.48043 10 0.734784 10 1L10.61 15.58C10.7256 18.5594 11.5464 21.4689 13.0049 24.0696C14.4634 26.6702 16.518 28.8877 19 30.54V34H16C15.7348 34 15.4804 34.1054 15.2929 34.2929C15.1054 34.4804 15 34.7348 15 35V42H13C12.7348 42 12.4804 42.1054 12.2929 42.2929C12.1054 42.4804 12 42.7348 12 43V47C12 47.2652 12.1054 47.5196 12.2929 47.7071C12.4804 47.8946 12.7348 48 13 48H35C35.2652 48 35.5196 47.8946 35.7071 47.7071C35.8946 47.5196 36 47.2652 36 47V43C36 42.7348 35.8946 42.4804 35.7071 42.2929C35.5196 42.1054 35.2652 42 35 42H33V35C33 34.7348 32.8946 34.4804 32.7071 34.2929C32.5196 34.1054 32.2652 34 32 34H29V30.54C31.4767 28.8916 33.528 26.6804 34.9862 24.0872C36.4444 21.4941 37.2681 18.5926 37.39 15.62ZM34 46H14V44H34V46ZM31 42H17V36H31V42ZM21 34V30C21.0003 29.8301 20.9574 29.6628 20.8751 29.5141C20.7929 29.3654 20.6741 29.2401 20.53 29.15C18.2 27.6969 16.2604 25.6965 14.8801 23.3227C13.4997 20.9489 12.7204 18.2737 12.61 15.53L12 2H36L35.43 15.53C35.3196 18.2737 34.5403 20.9489 33.1599 23.3227C31.7796 25.6965 29.84 27.6969 27.51 29.15C27.3584 29.2351 27.2317 29.3583 27.1423 29.5074C27.0528 29.6564 27.0038 29.8262 27 30V34H21Z" fill="white"/>
</g>
<defs>
<clipPath id="clip0_15_136">
<rect width="48" height="48" fill="white"/>
</clipPath>
</defs>
</svg>
